<svg xmlns="http://www.w3.org/2000/svg" width="133" height="34" viewBox="0 0 133 34" fill="none">
  <circle cx="17" cy="17" r="17" fill="#2AABEE"/>
  <path d="M7.1 16.9c5.2-2.1 8.7-3.5 10.4-4.2 5-1.9 6-2.2 6.7-2.2.15 0 .48.03.7.19.18.14.23.32.25.45.02.13.05.42.03.65-.27 2.62-1.44 8.99-2.03 11.92-.25 1.24-.75 1.51-1.23 1.55-1.04.09-1.83-.49-2.84-1.1-1.58-.96-2.53-1.4-4.06-2.33-1.77-1.08-.21-1.58.8-2.55.26-.25 4.78-4.31 4.76-4.43-.01-.04-.14-.48-.25-.57-.1-.09-.26-.06-.37-.03-.16.03-2.68 1.57-7.56 4.62-.72.45-1.36.68-1.94.66-.64-.01-1.87-.33-2.79-.61-1.12-.34-1.54-.5-1.46-1.07.04-.3.33-.61.86-.94z" fill="#fff"/>
  <text x="44" y="23.5" font-family="Arial, Helvetica, sans-serif" font-size="20" font-weight="600" fill="#222">Telegram</text>
</svg>